#!OML:ASF H:\MichaelJackson\Top Level 1\Subject 1\Session 1\male.ASF
:FULLY-SPECIFIED
:DEGREES
662
root 3.65005 16.3421 32.4439 -363.71 19.7844 -3.03179
lowerback 9.37626 -6.05669 -6.72709
upperback 2.40652 -8.65719 0.162276
thorax -1.68074 -4.31592 4.74407
lowerneck -6.81913 -4.0273 1.16159
upperneck 4.00976 -5.77054 4.84982
head 2.58058 -2.69616 1.10439
rclavicle -1.25234e-014 1.43125e-014
rhumerus -57.1509 -22.2603 -71.958
rradius 78.5711
rwrist -19.8236
rhand -26.1339 -32.7117
rfingers 7.12502
rthumb 0.416449 -422.691
lclavicle -1.25234e-014 1.43125e-014
lhumerus -25.9683 -46.4585 89.5958
lradius 57.79
lwrist 16.5946
lhand 20.7146 17.8371
lfingers 7.12502
lthumb 45.2002 41.2574
rfemur -59.8194 -30.0084 10.1583
rtibia 106.176
rfoot 22.0748 -0.679733
rtoes 12.0119
lfemur -26.3474 34.2196 -19.016
ltibia 48.4365
lfoot -18.9247 7.59714
ltoes -0.192886
663
root 3.64595 16.3334 32.4933 -363.044 19.9055 -2.8389
lowerback 8.55341 -6.07774 -6.1873
upperback 2.08109 -8.59741 0.097789
thorax -1.66691 -4.27982 4.30611
lowerneck -6.69315 -4.17873 0.806865
upperneck 4.20338 -5.94444 4.80105
head 2.63691 -2.78738 1.14299
rclavicle -8.39865e-015 2.38542e-014
rhumerus -56.6914 -22.1629 -72.2637
rradius 79.0596
rwrist -18.3162
rhand -29.2398 -35.7079
rfingers 7.12502
rthumb -2.58334 -425.672
lclavicle -8.39865e-015 2.38542e-014
lhumerus -27.4508 -46.6537 90.9132
lradius 58.6667
lwrist 17.556
lhand 21.2517 18.8149
lfingers 7.12502
lthumb 45.6993 42.0336
rfemur -56.0471 -28.0014 8.05511
rtibia 102.387
rfoot 20.0149 -4.84824
rtoes 16.944
lfemur -27.1138 33.9569 -19.4599
ltibia 48.727
lfoot -18.9075 7.46465
ltoes 1.01996
664
root 3.64309 16.322 32.541 -362.455 19.8287 -2.55822
lowerback 7.80524 -6.02666 -5.66332
upperback 1.79034 -8.45442 -0.0104199
thorax -1.66726 -4.2034 3.83557
lowerneck -6.55416 -4.31554 0.451439
upperneck 4.33869 -6.09523 4.73758
head 2.67077 -2.86954 1.17869
rclavicle -4.16951e-014 8.74653e-015
rhumerus -56.1724 -21.8687 -72.6837
rradius 79.5673
rwrist -16.5138
rhand -32.4804 -39.5314
rfingers 7.12502
rthumb -5.71254 -429.434
lclavicle -4.16951e-014 8.74653e-015
lhumerus -29.0064 -46.7119 92.1976
lradius 59.5804
lwrist 18.2454
lhand 21.7891 19.6602
lfingers 7.12502
lthumb 46.198 42.6719
rfemur -52.4948 -25.7809 6.15023
rtibia 98.4314
rfoot 17.6286 -9.28062
rtoes 21.9872
lfemur -27.7015 33.5465 -19.8543
ltibia 49.05
lfoot -18.8871 7.56345
ltoes 2.43949
665
root 3.64056 16.3094 32.5871 -361.956 19.521 -2.18401
lowerback 7.13968 -5.89363 -5.17746
upperback 1.54369 -8.2156 -0.169892
thorax -1.67317 -4.08071 3.33697
lowerneck -6.40214 -4.43572 0.100879
upperneck 4.42081 -6.22222 4.67352
head 2.68404 -2.94141 1.21513
rclavicle -9.29318e-014 7.95139e-016
rhumerus -55.6057 -21.3274 -73.2549
rradius 80.0805
rwrist -14.4896
rhand -35.6684 -43.9821
rfingers 7.12502
rthumb -8.78986 -433.779
lclavicle -9.29318e-014 7.95139e-016
lhumerus -30.6105 -46.6599 93.4192
lradius 60.5251
lwrist 18.6728
lhand 22.3317 20.3549
lfingers 7.12502
lthumb 46.7007 43.1519
rfemur -49.1604 -23.3992 4.40326
rtibia 94.37
rfoot 14.9123 -13.7467
rtoes 27.0449
lfemur -28.0732 33.0575 -20.1814
ltibia 49.3884
lfoot -18.9029 7.85293
ltoes 4.08576
666
root 3.63769 16.2967 32.6316 -361.552 18.9725 -1.72446
lowerback 6.55532 -5.67729 -4.73445
upperback 1.34399 -7.87761 -0.383749
thorax -1.67812 -3.91016 2.80944
lowerneck -6.24511 -4.54232 -0.237752
upperneck 4.47091 -6.33178 4.61226
head 2.68527 -3.00515 1.25165
rclavicle 7.76254e-014 -3.97569e-015
rhumerus -55.0174 -20.4894 -73.999
rradius 80.5848
rwrist -12.3017
rhand -38.5966 -48.673
rfingers 7.12502
rthumb -11.6147 -438.331
lclavicle 7.76254e-014 -3.97569e-015
lhumerus -32.2349 -46.5233 94.5562
lradius 61.4851
lwrist 18.8797
lhand 22.901 20.895
lfingers 7.12502
lthumb 47.2274 43.4604
rfemur -46.0413 -20.9161 2.78136
rtibia 90.2521
rfoot 11.9577 -17.945
rtoes 31.8443
lfemur -28.2202 32.5571 -20.4316
ltibia 49.7237
lfoot -19.0019 8.22671
ltoes 6.19688
667
root 3.63361 16.2847 32.675 -361.245 18.1998 -1.19739
lowerback 6.05082 -5.38428 -4.32778
upperback 1.18989 -7.4473 -0.65216
thorax -1.68001 -3.69499 2.24951
lowerneck -6.0972 -4.63801 -0.553748
upperneck 4.51518 -6.4298 4.55405
head 2.68555 -3.06272 1.28574
rclavicle 7.45443e-015 -4.77083e-015
rhumerus -54.4425 -19.3022 -74.9417
rradius 81.0957
rwrist -10.0503
rhand -41.175 -53.2763
rfingers 7.12502
rthumb -14.1003 -442.778
lclavicle 7.45443e-015 -4.77083e-015
lhumerus -33.8454 -46.3293 95.589
lradius 62.4329
lwrist 18.93
lhand 23.5113 21.3162
lfingers 7.12502
lthumb 47.7909 43.626
rfemur -43.1334 -18.4079 1.2619
rtibia 86.1201
rfoot 9.01923 -21.5674
rtoes 35.9759
lfemur -28.1467 32.0771 -20.5902
ltibia 50.042
lfoot -19.2073 8.5901
ltoes 8.80154
668
root 3.62755 16.2744 32.7176 -361.032 17.2409 -0.621925
lowerback 5.62044 -5.02568 -3.95258
upperback 1.07646 -6.93761 -0.968078
thorax -1.67638 -3.44149 1.66153
lowerneck -5.97105 -4.72817 -0.84564
upperneck 4.57614 -6.52417 4.49452
head 2.69471 -3.11758 1.3149
rclavicle 2.47735e-014 -2.70347e-014
rhumerus -53.9291 -17.7199 -76.0916
rradius 81.6466
rwrist -7.83419
rhand -43.3794 -57.3882
rfingers 7.12502
rthumb -16.2237 -446.729
lclavicle 2.47735e-014 -2.70347e-014
lhumerus -35.4077 -46.097 96.5134
lradius 63.3349
lwrist 18.8994
lhand 24.1777 21.6501
lfingers 7.12502
lthumb 48.4051 43.6717
rfemur -40.426 -15.9578 -0.170879
rtibia 82.009
rfoot 6.44798 -24.4394
rtoes 39.2135
lfemur -27.8653 31.6047 -20.6393
ltibia 50.3355
lfoot -19.506 8.85771
ltoes 11.7151
669
root 3.61886 16.266 32.7595 -360.903 16.154 -0.0101274
lowerback 5.26399 -4.61927 -3.60706
upperback 0.992192 -6.37135 -1.32514
thorax -1.67449 -3.16054 1.05195
lowerneck -5.86307 -4.82023 -1.11903
upperneck 4.6656 -6.62498 4.44112
head 2.71689 -3.17455 1.342
rclavicle 8.4235e-015 -5.56597e-015
rhumerus -53.5336 -15.7107 -77.4459
rradius 82.2905
rwrist -5.74503
rhand -45.2706 -60.9117
rfingers 7.12502
rthumb -18.044 -269.905
lclavicle 8.4235e-015 -5.56597e-015
lhumerus -36.8938 -45.8356 97.3327
lradius 64.1552
lwrist 18.8662
lhand 24.9127 21.9487
lfingers 7.12502
lthumb 49.081 43.641
rfemur -37.9073 -13.662 -1.53342
rtibia 77.9515
rfoot 4.54473 -26.5221
rtoes 41.5596
lfemur -27.3978 31.1037 -20.5651
ltibia 50.605
lfoot -19.8665 8.89811
ltoes 14.8486
